# xmcd
#
# Track frame offsets: 
#        182
#        23647
#        42855
#        63687
#        83537
#        105597
#        123455
#        145642
#        169745
#        187772
#
# Disc length: 2773 seconds
#
# Revision: 0
# Processed by: cddbd v1.5.1PL0 Copyright (c) Steve Scherf et al.
# Submitted via: ExactAudioCopy v0.90b4
#
DISCID=760ad30a
DTITLE=Various Artist - Un Nuevo Despertar
DYEAR=1993
DGENRE=Salsa
TTITLE0=Palmer Hernandez/Ven devorame otra vez
TTITLE1=Tommy Villariny/Amame
TTITLE2=Corinne Oviedo/Te estoy pidiendo
TTITLE3=Ernsto Sanchez/No quiero, no puedo
TTITLE4=Corinne Oviedo/No te voy a defraudar
TTITLE5=Mario Diaz/Voy a escarbar tu cuerpo
TTITLE6=Anibal Pastor/Si, te menti
TTITLE7=Tommy Villariny/Pero llegaste tu
TTITLE8=Tommy Villariny/No tuve nadie
TTITLE9=Corinne Oviedo/Solo soy de ti
EXTD=
EXTT0=
EXTT1=
EXTT2=
EXTT3=
EXTT4=
EXTT5=
EXTT6=
EXTT7=
EXTT8=
EXTT9=
PLAYORDER=
